<svg viewBox="0 0 44 44" fill="none" xmlns="http://www.w3.org/2000/svg">
<path d="M22 23C22.5523 23 23 22.5523 23 22C23 21.4477 22.5523 21 22 21C21.4477 21 21 21.4477 21 22C21 22.5523 21.4477 23 22 23Z" stroke="#C5C4DF" stroke-width="2" stroke-linecap="round" stroke-linejoin="round"/>
<path d="M29 23C29.5523 23 30 22.5523 30 22C30 21.4477 29.5523 21 29 21C28.4477 21 28 21.4477 28 22C28 22.5523 28.4477 23 29 23Z" stroke="#C5C4DF" stroke-width="2" stroke-linecap="round" stroke-linejoin="round"/>
<path d="M15 23C15.5523 23 16 22.5523 16 22C16 21.4477 15.5523 21 15 21C14.4477 21 14 21.4477 14 22C14 22.5523 14.4477 23 15 23Z" stroke="#C5C4DF" stroke-width="2" stroke-linecap="round" stroke-linejoin="round"/>
</svg>
